<?xml version="1.0" standalone="no"?>
 <!DOCTYPE svg PUBLIC "-//W3C//DTD SVG 1.1//EN" 
 "http://www.w3.org/Graphics/SVG/1.1/DTD/svg11.dtd"> 
<svg xmlns="http://www.w3.org/2000/svg" version="1.1" 
    width="11.999cm" height="11.999cm" viewBox="0 0 47240 47240 ">
<title>SVG Picture created as input.svg date 2021/12/22 19:36:18 </title>
  <desc>Picture generated by Eeschema-SVG </desc>
<g style="fill:#000000; fill-opacity:1;stroke:#000000; stroke-opacity:1;
stroke-linecap:round; stroke-linejoin:round; "
 transform="translate(0 0) scale(1 1)">
</g>
<g style="fill:#000000; fill-opacity:0.0; 
stroke:#000000; stroke-width:0; stroke-opacity:1; 
stroke-linecap:round; stroke-linejoin:round;">
<g >
</g>
<g style="fill:#000000; fill-opacity:0.0; 
stroke:#000000; stroke-width:100; stroke-opacity:1; 
stroke-linecap:round; stroke-linejoin:round;">
<rect x="15100" y="19000" width="800" height="2000" rx="0" />
</g>
<g style="fill:#000000; fill-opacity:0.0; 
stroke:#000000; stroke-width:60; stroke-opacity:1; 
stroke-linecap:round; stroke-linejoin:round;">
<path d="M15500 19000
L15500 18500
" />
<path d="M15500 21000
L15500 21500
" />
<text x="16720" y="19810"
textLength="990" font-size="660" lengthAdjust="spacingAndGlyphs"
text-anchor="middle" opacity="0">R2</text>
<path d="M16630 19780
L16470 19540
" />
<path d="M16350 19780
L16350 19280
L16540 19280
L16580 19310
L16610 19330
L16630 19380
L16630 19450
L16610 19500
L16580 19520
L16540 19540
L16350 19540
" />
<path d="M16820 19330
L16850 19310
L16890 19280
L17010 19280
L17060 19310
L17080 19330
L17110 19380
L17110 19420
L17080 19500
L16800 19780
L17110 19780
" />
<text x="16720" y="20720"
textLength="1040" font-size="660" lengthAdjust="spacingAndGlyphs"
text-anchor="middle" opacity="0">8К</text>
<path d="M16420 20410
L16370 20380
L16350 20360
L16320 20310
L16320 20290
L16350 20240
L16370 20220
L16420 20190
L16510 20190
L16560 20220
L16580 20240
L16610 20290
L16610 20310
L16580 20360
L16560 20380
L16510 20410
L16420 20410
L16370 20430
L16350 20450
L16320 20500
L16320 20600
L16350 20640
L16370 20670
L16420 20690
L16510 20690
L16560 20670
L16580 20640
L16610 20600
L16610 20500
L16580 20450
L16560 20430
L16510 20410
" />
<path d="M16820 20690
L16820 20190
" />
<path d="M17110 20690
L16890 20410
" />
<path d="M17110 20190
L16820 20480
" />
</g>
</g>
<g style="fill:#000000; fill-opacity:0.0; 
stroke:#000000; stroke-width:0; stroke-opacity:1; 
stroke-linecap:round; stroke-linejoin:round;">
<g >
</g>
<g style="fill:#000000; fill-opacity:0.0; 
stroke:#000000; stroke-width:60; stroke-opacity:1; 
stroke-linecap:round; stroke-linejoin:round;">
<path style="fill:#000000; fill-opacity:0.0; 
stroke:#000000; stroke-width:60; stroke-opacity:1; 
stroke-linecap:round; stroke-linejoin:round;fill:none"
d="M 28000,17500
28000,18500
" /> 
</g>
<g style="fill:#000000; fill-opacity:1.0; 
stroke:#000000; stroke-width:60; stroke-opacity:1; 
stroke-linecap:round; stroke-linejoin:round;">
<path style="fill:#000000; fill-opacity:1.0; 
stroke:#000000; stroke-width:60; stroke-opacity:1; 
stroke-linecap:round; stroke-linejoin:round;fill-rule:evenodd;"
d="M 28000,17500
28100,17800
27900,17800
Z" /> 
</g>
</g>
<g style="fill:#000000; fill-opacity:1.0; 
stroke:#000000; stroke-width:0; stroke-opacity:1; 
stroke-linecap:round; stroke-linejoin:round;">
<g >
</g>
<g style="fill:#000000; fill-opacity:0.0; 
stroke:#000000; stroke-width:60; stroke-opacity:1; 
stroke-linecap:round; stroke-linejoin:round;">
<path style="fill:#000000; fill-opacity:0.0; 
stroke:#000000; stroke-width:60; stroke-opacity:1; 
stroke-linecap:round; stroke-linejoin:round;fill:none"
d="M 33000,22500
32000,22500
" /> 
</g>
<g style="fill:#000000; fill-opacity:1.0; 
stroke:#000000; stroke-width:60; stroke-opacity:1; 
stroke-linecap:round; stroke-linejoin:round;">
<path style="fill:#000000; fill-opacity:1.0; 
stroke:#000000; stroke-width:60; stroke-opacity:1; 
stroke-linecap:round; stroke-linejoin:round;fill-rule:evenodd;"
d="M 33000,22500
32700,22600
32700,22400
Z" /> 
</g>
</g>
<g style="fill:#000000; fill-opacity:1.0; 
stroke:#000000; stroke-width:0; stroke-opacity:1; 
stroke-linecap:round; stroke-linejoin:round;">
<g >
</g>
<g style="fill:#000000; fill-opacity:0.0; 
stroke:#000000; stroke-width:100; stroke-opacity:1; 
stroke-linecap:round; stroke-linejoin:round;">
<rect x="27600" y="19500" width="800" height="2000" rx="0" />
</g>
<g style="fill:#000000; fill-opacity:0.0; 
stroke:#000000; stroke-width:60; stroke-opacity:1; 
stroke-linecap:round; stroke-linejoin:round;">
<path d="M28000 19500
L28000 19000
" />
<path d="M28000 21500
L28000 22000
" />
<text x="29220" y="20310"
textLength="1040" font-size="660" lengthAdjust="spacingAndGlyphs"
text-anchor="middle" opacity="0">R4</text>
<path d="M29130 20280
L28970 20040
" />
<path d="M28850 20280
L28850 19780
L29040 19780
L29080 19810
L29110 19830
L29130 19880
L29130 19950
L29110 20000
L29080 20020
L29040 20040
L28850 20040
" />
<path d="M29560 19950
L29560 20280
" />
<path d="M29440 19760
L29320 20110
L29630 20110
" />
<text x="29440" y="21220"
textLength="1490" font-size="660" lengthAdjust="spacingAndGlyphs"
text-anchor="middle" opacity="0">100</text>
<path d="M29100 21190
L28820 21190
" />
<path d="M28960 21190
L28960 20690
L28910 20760
L28860 20810
L28820 20830
" />
<path d="M29410 20690
L29460 20690
L29510 20720
L29530 20740
L29550 20790
L29580 20880
L29580 21000
L29550 21100
L29530 21140
L29510 21170
L29460 21190
L29410 21190
L29360 21170
L29340 21140
L29320 21100
L29290 21000
L29290 20880
L29320 20790
L29340 20740
L29360 20720
L29410 20690
" />
<path d="M29890 20690
L29940 20690
L29980 20720
L30010 20740
L30030 20790
L30050 20880
L30050 21000
L30030 21100
L30010 21140
L29980 21170
L29940 21190
L29890 21190
L29840 21170
L29820 21140
L29790 21100
L29770 21000
L29770 20880
L29790 20790
L29820 20740
L29840 20720
L29890 20690
" />
</g>
</g>
<g style="fill:#000000; fill-opacity:0.0; 
stroke:#000000; stroke-width:0; stroke-opacity:1; 
stroke-linecap:round; stroke-linejoin:round;">
<g >
</g>
<g style="fill:#000000; fill-opacity:0.0; 
stroke:#000000; stroke-width:60; stroke-opacity:1; 
stroke-linecap:round; stroke-linejoin:round;">
<path style="fill:#000000; fill-opacity:0.0; 
stroke:#000000; stroke-width:60; stroke-opacity:1; 
stroke-linecap:round; stroke-linejoin:round;fill:none"
d="M 27750,26750
28250,26750
" /> 
<path style="fill:#000000; fill-opacity:0.0; 
stroke:#000000; stroke-width:60; stroke-opacity:1; 
stroke-linecap:round; stroke-linejoin:round;fill:none"
d="M 27950,27000
28050,27000
" /> 
<path style="fill:#000000; fill-opacity:0.0; 
stroke:#000000; stroke-width:60; stroke-opacity:1; 
stroke-linecap:round; stroke-linejoin:round;fill:none"
d="M 28000,26500
28000,26000
" /> 
<path style="fill:#000000; fill-opacity:0.0; 
stroke:#000000; stroke-width:60; stroke-opacity:1; 
stroke-linecap:round; stroke-linejoin:round;fill:none"
d="M 28500,26500
27500,26500
" /> 
<text x="28050" y="28000"
textLength="2960" font-size="660" lengthAdjust="spacingAndGlyphs"
text-anchor="middle" opacity="0">GNDREF</text>
<path d="M26970 27500
L26930 27470
L26850 27470
L26780 27500
L26740 27540
L26710 27590
L26690 27690
L26690 27760
L26710 27850
L26740 27900
L26780 27950
L26850 27970
L26900 27970
L26970 27950
L27000 27920
L27000 27760
L26900 27760
" />
<path d="M27210 27970
L27210 27470
L27500 27970
L27500 27470
" />
<path d="M27740 27970
L27740 27470
L27850 27470
L27930 27500
L27970 27540
L28000 27590
L28020 27690
L28020 27760
L28000 27850
L27970 27900
L27930 27950
L27850 27970
L27740 27970
" />
<path d="M28520 27970
L28350 27730
" />
<path d="M28240 27970
L28240 27470
L28430 27470
L28470 27500
L28500 27520
L28520 27570
L28520 27640
L28500 27690
L28470 27710
L28430 27730
L28240 27730
" />
<path d="M28740 27710
L28900 27710
" />
<path d="M28970 27970
L28740 27970
L28740 27470
L28970 27470
" />
<path d="M29350 27710
L29190 27710
" />
<path d="M29190 27970
L29190 27470
L29430 27470
" />
</g>
</g>
<g style="fill:#000000; fill-opacity:0.0; 
stroke:#000000; stroke-width:0; stroke-opacity:1; 
stroke-linecap:round; stroke-linejoin:round;">
<g >
</g>
<g style="fill:#000000; fill-opacity:0.0; 
stroke:#000000; stroke-width:60; stroke-opacity:1; 
stroke-linecap:round; stroke-linejoin:round;">
<path style="fill:#000000; fill-opacity:0.0; 
stroke:#000000; stroke-width:60; stroke-opacity:1; 
stroke-linecap:round; stroke-linejoin:round;fill:none"
d="M 28000,24500
28000,24000
28000,23500
" /> 
</g>
<g style="fill:#000000; fill-opacity:1.0; 
stroke:#000000; stroke-width:60; stroke-opacity:1; 
stroke-linecap:round; stroke-linejoin:round;">
<path style="fill:#000000; fill-opacity:1.0; 
stroke:#000000; stroke-width:60; stroke-opacity:1; 
stroke-linecap:round; stroke-linejoin:round;fill-rule:evenodd;"
d="M 27700,24300
28000,23700
28300,24300
" /> 
</g>
<g style="fill:#000000; fill-opacity:0.0; 
stroke:#000000; stroke-width:100; stroke-opacity:1; 
stroke-linecap:round; stroke-linejoin:round;">
<path style="fill:#000000; fill-opacity:0.0; 
stroke:#000000; stroke-width:100; stroke-opacity:1; 
stroke-linecap:round; stroke-linejoin:round;fill:none"
d="M 28400,23800
28300,23700
27700,23700
27700,23700
" /> 
</g>
<g style="fill:#000000; fill-opacity:0.0; 
stroke:#000000; stroke-width:60; stroke-opacity:1; 
stroke-linecap:round; stroke-linejoin:round;">
<path d="M28000 24000
L27000 24000
" />
<path d="M28000 24000
L28000 25000
" />
<path d="M28000 24000
L28000 23000
" />
<text x="29230" y="23760"
textLength="1060" font-size="660" lengthAdjust="spacingAndGlyphs"
text-anchor="middle" opacity="0">U1</text>
<path d="M28840 23230
L28840 23640
L28870 23680
L28890 23710
L28940 23730
L29030 23730
L29080 23710
L29110 23680
L29130 23640
L29130 23230
" />
<path d="M29630 23730
L29340 23730
" />
<path d="M29490 23730
L29490 23230
L29440 23300
L29390 23350
L29340 23370
" />
<text x="30540" y="24670"
textLength="3680" font-size="660" lengthAdjust="spacingAndGlyphs"
text-anchor="middle" opacity="0">TL431ACZ</text>
<path d="M28770 24140
L29060 24140
" />
<path d="M28920 24640
L28920 24140
" />
<path d="M29460 24640
L29230 24640
L29230 24140
" />
<path d="M29840 24310
L29840 24640
" />
<path d="M29730 24120
L29610 24470
L29920 24470
" />
<path d="M30060 24140
L30370 24140
L30200 24330
L30270 24330
L30320 24360
L30340 24380
L30370 24430
L30370 24550
L30340 24590
L30320 24620
L30270 24640
L30130 24640
L30080 24620
L30060 24590
" />
<path d="M30840 24640
L30560 24640
" />
<path d="M30700 24640
L30700 24140
L30650 24210
L30610 24260
L30560 24280
" />
<path d="M31040 24500
L31270 24500
" />
<path d="M30990 24640
L31150 24140
L31320 24640
" />
<path d="M31770 24590
L31750 24620
L31680 24640
L31630 24640
L31560 24620
L31510 24570
L31490 24520
L31460 24430
L31460 24360
L31490 24260
L31510 24210
L31560 24170
L31630 24140
L31680 24140
L31750 24170
L31770 24190
" />
<path d="M31940 24140
L32270 24140
L31940 24640
L32270 24640
" />
</g>
</g>
<g style="fill:#000000; fill-opacity:0.0; 
stroke:#000000; stroke-width:0; stroke-opacity:1; 
stroke-linecap:round; stroke-linejoin:round;">
<g >
</g>
<g style="fill:#000000; fill-opacity:0.0; 
stroke:#000000; stroke-width:60; stroke-opacity:1; 
stroke-linecap:round; stroke-linejoin:round;">
<path style="fill:#000000; fill-opacity:0.0; 
stroke:#000000; stroke-width:60; stroke-opacity:1; 
stroke-linecap:round; stroke-linejoin:round;fill:none"
d="M 10000,26000
11000,26000
" /> 
</g>
<g style="fill:#000000; fill-opacity:1.0; 
stroke:#000000; stroke-width:60; stroke-opacity:1; 
stroke-linecap:round; stroke-linejoin:round;">
<path style="fill:#000000; fill-opacity:1.0; 
stroke:#000000; stroke-width:60; stroke-opacity:1; 
stroke-linecap:round; stroke-linejoin:round;fill-rule:evenodd;"
d="M 10000,26000
10300,25900
10300,26100
Z" /> 
</g>
</g>
<g style="fill:#000000; fill-opacity:1.0; 
stroke:#000000; stroke-width:0; stroke-opacity:1; 
stroke-linecap:round; stroke-linejoin:round;">
<g >
</g>
<g style="fill:#000000; fill-opacity:0.0; 
stroke:#000000; stroke-width:60; stroke-opacity:1; 
stroke-linecap:round; stroke-linejoin:round;">
<path style="fill:#000000; fill-opacity:0.0; 
stroke:#000000; stroke-width:60; stroke-opacity:1; 
stroke-linecap:round; stroke-linejoin:round;fill:none"
d="M 10000,22000
11000,22000
" /> 
</g>
<g style="fill:#000000; fill-opacity:1.0; 
stroke:#000000; stroke-width:60; stroke-opacity:1; 
stroke-linecap:round; stroke-linejoin:round;">
<path style="fill:#000000; fill-opacity:1.0; 
stroke:#000000; stroke-width:60; stroke-opacity:1; 
stroke-linecap:round; stroke-linejoin:round;fill-rule:evenodd;"
d="M 10000,22000
10300,21900
10300,22100
Z" /> 
</g>
</g>
<g style="fill:#000000; fill-opacity:1.0; 
stroke:#000000; stroke-width:0; stroke-opacity:1; 
stroke-linecap:round; stroke-linejoin:round;">
<g >
</g>
<g style="fill:#000000; fill-opacity:0.0; 
stroke:#000000; stroke-width:60; stroke-opacity:1; 
stroke-linecap:round; stroke-linejoin:round;">
<path style="fill:#000000; fill-opacity:0.0; 
stroke:#000000; stroke-width:60; stroke-opacity:1; 
stroke-linecap:round; stroke-linejoin:round;fill:none"
d="M 21500,26000
20500,26000
" /> 
</g>
<g style="fill:#000000; fill-opacity:1.0; 
stroke:#000000; stroke-width:60; stroke-opacity:1; 
stroke-linecap:round; stroke-linejoin:round;">
<path style="fill:#000000; fill-opacity:1.0; 
stroke:#000000; stroke-width:60; stroke-opacity:1; 
stroke-linecap:round; stroke-linejoin:round;fill-rule:evenodd;"
d="M 21500,26000
21200,26100
21200,25900
Z" /> 
</g>
</g>
<g style="fill:#000000; fill-opacity:1.0; 
stroke:#000000; stroke-width:0; stroke-opacity:1; 
stroke-linecap:round; stroke-linejoin:round;">
<g >
</g>
<g style="fill:#000000; fill-opacity:0.0; 
stroke:#000000; stroke-width:60; stroke-opacity:1; 
stroke-linecap:round; stroke-linejoin:round;">
<path style="fill:#000000; fill-opacity:0.0; 
stroke:#000000; stroke-width:60; stroke-opacity:1; 
stroke-linecap:round; stroke-linejoin:round;fill:none"
d="M 21500,22000
20500,22000
" /> 
</g>
<g style="fill:#000000; fill-opacity:1.0; 
stroke:#000000; stroke-width:60; stroke-opacity:1; 
stroke-linecap:round; stroke-linejoin:round;">
<path style="fill:#000000; fill-opacity:1.0; 
stroke:#000000; stroke-width:60; stroke-opacity:1; 
stroke-linecap:round; stroke-linejoin:round;fill-rule:evenodd;"
d="M 21500,22000
21200,22100
21200,21900
Z" /> 
</g>
</g>
<g style="fill:#000000; fill-opacity:1.0; 
stroke:#000000; stroke-width:0; stroke-opacity:1; 
stroke-linecap:round; stroke-linejoin:round;">
<g >
</g>
<g style="fill:#000000; fill-opacity:0.0; 
stroke:#000000; stroke-width:60; stroke-opacity:1; 
stroke-linecap:round; stroke-linejoin:round;">
<path style="fill:#000000; fill-opacity:0.0; 
stroke:#000000; stroke-width:60; stroke-opacity:1; 
stroke-linecap:round; stroke-linejoin:round;fill:none"
d="M 21500,18500
20500,18500
" /> 
</g>
<g style="fill:#000000; fill-opacity:1.0; 
stroke:#000000; stroke-width:60; stroke-opacity:1; 
stroke-linecap:round; stroke-linejoin:round;">
<path style="fill:#000000; fill-opacity:1.0; 
stroke:#000000; stroke-width:60; stroke-opacity:1; 
stroke-linecap:round; stroke-linejoin:round;fill-rule:evenodd;"
d="M 21500,18500
21200,18600
21200,18400
Z" /> 
</g>
</g>
<g style="fill:#000000; fill-opacity:1.0; 
stroke:#000000; stroke-width:0; stroke-opacity:1; 
stroke-linecap:round; stroke-linejoin:round;">
<g >
</g>
<g style="fill:#000000; fill-opacity:0.0; 
stroke:#000000; stroke-width:100; stroke-opacity:1; 
stroke-linecap:round; stroke-linejoin:round;">
<rect x="12000" y="21600" width="2000" height="800" rx="0" />
</g>
<g style="fill:#000000; fill-opacity:0.0; 
stroke:#000000; stroke-width:60; stroke-opacity:1; 
stroke-linecap:round; stroke-linejoin:round;">
<path d="M14000 22000
L14500 22000
" />
<path d="M12000 22000
L11500 22000
" />
<text x="13000" y="20200"
textLength="1040" font-size="660" lengthAdjust="spacingAndGlyphs"
text-anchor="middle" opacity="0">R1</text>
<path d="M12910 20170
L12750 19930
" />
<path d="M12630 20170
L12630 19670
L12820 19670
L12860 19700
L12890 19720
L12910 19770
L12910 19840
L12890 19890
L12860 19910
L12820 19930
L12630 19930
" />
<path d="M13390 20170
L13100 20170
" />
<path d="M13250 20170
L13250 19670
L13200 19740
L13150 19790
L13100 19810
" />
<text x="13000" y="21110"
textLength="2230" font-size="660" lengthAdjust="spacingAndGlyphs"
text-anchor="middle" opacity="0">92,5К</text>
<path d="M12050 21080
L12150 21080
L12200 21060
L12220 21030
L12270 20960
L12290 20870
L12290 20680
L12270 20630
L12250 20610
L12200 20580
L12100 20580
L12050 20610
L12030 20630
L12010 20680
L12010 20800
L12030 20840
L12050 20870
L12100 20890
L12200 20890
L12250 20870
L12270 20840
L12290 20800
" />
<path d="M12480 20630
L12510 20610
L12550 20580
L12670 20580
L12720 20610
L12750 20630
L12770 20680
L12770 20720
L12750 20800
L12460 21080
L12770 21080
" />
<path d="M13010 21060
L13010 21080
L12980 21130
L12960 21150
" />
<path d="M13460 20580
L13220 20580
L13200 20820
L13220 20800
L13270 20770
L13390 20770
L13440 20800
L13460 20820
L13480 20870
L13480 20990
L13460 21030
L13440 21060
L13390 21080
L13270 21080
L13220 21060
L13200 21030
" />
<path d="M13700 21080
L13700 20580
" />
<path d="M13980 21080
L13770 20800
" />
<path d="M13980 20580
L13700 20870
" />
</g>
</g>
<g style="fill:#000000; fill-opacity:0.0; 
stroke:#000000; stroke-width:0; stroke-opacity:1; 
stroke-linecap:round; stroke-linejoin:round;">
<g >
</g>
<g style="fill:#000000; fill-opacity:0.0; 
stroke:#000000; stroke-width:60; stroke-opacity:1; 
stroke-linecap:round; stroke-linejoin:round;">
<path style="fill:#000000; fill-opacity:0.0; 
stroke:#000000; stroke-width:60; stroke-opacity:1; 
stroke-linecap:round; stroke-linejoin:round;fill:none"
d="M 15250,27250
15750,27250
" /> 
<path style="fill:#000000; fill-opacity:0.0; 
stroke:#000000; stroke-width:60; stroke-opacity:1; 
stroke-linecap:round; stroke-linejoin:round;fill:none"
d="M 15450,27500
15550,27500
" /> 
<path style="fill:#000000; fill-opacity:0.0; 
stroke:#000000; stroke-width:60; stroke-opacity:1; 
stroke-linecap:round; stroke-linejoin:round;fill:none"
d="M 15500,27000
15500,26500
" /> 
<path style="fill:#000000; fill-opacity:0.0; 
stroke:#000000; stroke-width:60; stroke-opacity:1; 
stroke-linecap:round; stroke-linejoin:round;fill:none"
d="M 16000,27000
15000,27000
" /> 
<text x="15550" y="28500"
textLength="2960" font-size="660" lengthAdjust="spacingAndGlyphs"
text-anchor="middle" opacity="0">GNDREF</text>
<path d="M14470 28000
L14430 27970
L14350 27970
L14280 28000
L14240 28040
L14210 28090
L14190 28190
L14190 28260
L14210 28350
L14240 28400
L14280 28450
L14350 28470
L14400 28470
L14470 28450
L14500 28420
L14500 28260
L14400 28260
" />
<path d="M14710 28470
L14710 27970
L15000 28470
L15000 27970
" />
<path d="M15240 28470
L15240 27970
L15350 27970
L15430 28000
L15470 28040
L15500 28090
L15520 28190
L15520 28260
L15500 28350
L15470 28400
L15430 28450
L15350 28470
L15240 28470
" />
<path d="M16020 28470
L15850 28230
" />
<path d="M15740 28470
L15740 27970
L15930 27970
L15970 28000
L16000 28020
L16020 28070
L16020 28140
L16000 28190
L15970 28210
L15930 28230
L15740 28230
" />
<path d="M16240 28210
L16400 28210
" />
<path d="M16470 28470
L16240 28470
L16240 27970
L16470 27970
" />
<path d="M16850 28210
L16690 28210
" />
<path d="M16690 28470
L16690 27970
L16930 27970
" />
</g>
</g>
<g style="fill:#000000; fill-opacity:0.0; 
stroke:#000000; stroke-width:0; stroke-opacity:1; 
stroke-linecap:round; stroke-linejoin:round;">
<g >
</g>
<g style="fill:#000000; fill-opacity:0.0; 
stroke:#000000; stroke-width:100; stroke-opacity:1; 
stroke-linecap:round; stroke-linejoin:round;">
<rect x="15100" y="23000" width="800" height="2000" rx="0" />
</g>
<g style="fill:#000000; fill-opacity:0.0; 
stroke:#000000; stroke-width:60; stroke-opacity:1; 
stroke-linecap:round; stroke-linejoin:round;">
<path d="M15500 23000
L15500 22500
" />
<path d="M15500 25000
L15500 25500
" />
<text x="16720" y="23810"
textLength="1040" font-size="660" lengthAdjust="spacingAndGlyphs"
text-anchor="middle" opacity="0">R3</text>
<path d="M16630 23780
L16470 23540
" />
<path d="M16350 23780
L16350 23280
L16540 23280
L16580 23310
L16610 23330
L16630 23380
L16630 23450
L16610 23500
L16580 23520
L16540 23540
L16350 23540
" />
<path d="M16800 23280
L17110 23280
L16940 23470
L17010 23470
L17060 23500
L17080 23520
L17110 23570
L17110 23690
L17080 23730
L17060 23760
L17010 23780
L16870 23780
L16820 23760
L16800 23730
" />
<text x="17070" y="24720"
textLength="1750" font-size="660" lengthAdjust="spacingAndGlyphs"
text-anchor="middle" opacity="0">8,3К</text>
<path d="M16410 24410
L16360 24380
L16340 24360
L16320 24310
L16320 24290
L16340 24240
L16360 24220
L16410 24190
L16510 24190
L16550 24220
L16580 24240
L16600 24290
L16600 24310
L16580 24360
L16550 24380
L16510 24410
L16410 24410
L16360 24430
L16340 24450
L16320 24500
L16320 24600
L16340 24640
L16360 24670
L16410 24690
L16510 24690
L16550 24670
L16580 24640
L16600 24600
L16600 24500
L16580 24450
L16550 24430
L16510 24410
" />
<path d="M16840 24670
L16840 24690
L16820 24740
L16790 24760
" />
<path d="M17010 24190
L17320 24190
L17150 24380
L17220 24380
L17270 24410
L17290 24430
L17320 24480
L17320 24600
L17290 24640
L17270 24670
L17220 24690
L17080 24690
L17030 24670
L17010 24640
" />
<path d="M17530 24690
L17530 24190
" />
<path d="M17820 24690
L17600 24410
" />
<path d="M17820 24190
L17530 24480
" />
</g>
</g>
<g style="fill:#000000; fill-opacity:0.0; 
stroke:#000000; stroke-width:60; stroke-opacity:1; 
stroke-linecap:round; stroke-linejoin:round;">
<path d="M15500 21500
L15500 22000
" />
<path d="M11000 26000
L15500 26000
" />
<path d="M28000 22500
L28000 22000
" />
<path d="M26500 24000
L27000 24000
" />
<path d="M26500 22500
L26500 24000
" />
<path d="M28000 22500
L26500 22500
" />
<path d="M28000 23000
L28000 22500
" />
<path d="M28000 26000
L28000 25000
" />
<path d="M32000 22500
L28000 22500
" />
<path d="M28000 18500
L28000 19000
" />
<path d="M15500 26000
L20500 26000
" />
<path d="M15500 22000
L20500 22000
" />
<path d="M15500 22500
L15500 22000
" />
<path d="M15500 26500
L15500 26000
" />
<path d="M15500 25500
L15500 26000
" />
<path d="M11000 22000
L11500 22000
" />
<path d="M20500 18500
L15500 18500
" />
<path d="M14500 22000
L15500 22000
" />
<text x="32000" y="21900"
textLength="1610" font-size="660" lengthAdjust="spacingAndGlyphs"
text-anchor="start" opacity="0">Uref</text>
<path d="M32140 21370
L32140 21780
L32170 21820
L32190 21850
L32240 21870
L32330 21870
L32380 21850
L32410 21820
L32430 21780
L32430 21370
" />
<path d="M32670 21870
L32670 21540
" />
<path d="M32670 21630
L32690 21590
L32720 21560
L32760 21540
L32810 21540
" />
<path d="M33170 21850
L33120 21870
L33030 21870
L32980 21850
L32950 21800
L32950 21610
L32980 21560
L33030 21540
L33120 21540
L33170 21560
L33190 21610
L33190 21660
L32950 21700
" />
<path d="M33330 21540
L33530 21540
" />
<path d="M33410 21870
L33410 21440
L33430 21400
L33480 21370
L33530 21370
" />
<text x="28500" y="17400"
textLength="1580" font-size="660" lengthAdjust="spacingAndGlyphs"
text-anchor="start" opacity="0">+5V</text>
<path d="M28640 17180
L29030 17180
" />
<path d="M28830 17370
L28830 16990
" />
<path d="M29500 16870
L29260 16870
L29240 17110
L29260 17090
L29310 17060
L29430 17060
L29480 17090
L29500 17110
L29530 17160
L29530 17280
L29500 17320
L29480 17350
L29430 17370
L29310 17370
L29260 17350
L29240 17320
" />
<path d="M29670 16870
L29830 17370
L30000 16870
" />
<text x="21500" y="21400"
textLength="960" font-size="660" lengthAdjust="spacingAndGlyphs"
text-anchor="start" opacity="0">A0</text>
<path d="M21620 21230
L21860 21230
" />
<path d="M21570 21370
L21740 20870
L21910 21370
" />
<path d="M22170 20870
L22220 20870
L22260 20900
L22290 20920
L22310 20970
L22330 21060
L22330 21180
L22310 21280
L22290 21320
L22260 21350
L22220 21370
L22170 21370
L22120 21350
L22100 21320
L22070 21280
L22050 21180
L22050 21060
L22070 20970
L22100 20920
L22120 20900
L22170 20870
" />
<text x="9000" y="21400"
textLength="1940" font-size="660" lengthAdjust="spacingAndGlyphs"
text-anchor="start" opacity="0">Input</text>
<path d="M9140 21370
L9140 20870
" />
<path d="M9380 21040
L9380 21370
" />
<path d="M9380 21090
L9410 21060
L9450 21040
L9530 21040
L9570 21060
L9600 21110
L9600 21370
" />
<path d="M9830 21040
L9830 21540
" />
<path d="M9830 21060
L9880 21040
L9980 21040
L10030 21060
L10050 21090
L10070 21130
L10070 21280
L10050 21320
L10030 21350
L9980 21370
L9880 21370
L9830 21350
" />
<path d="M10500 21040
L10500 21370
" />
<path d="M10290 21040
L10290 21300
L10310 21350
L10360 21370
L10430 21370
L10480 21350
L10500 21320
" />
<path d="M10670 21040
L10860 21040
" />
<path d="M10740 20870
L10740 21300
L10760 21350
L10810 21370
L10860 21370
" />
<text x="21500" y="17900"
textLength="1610" font-size="660" lengthAdjust="spacingAndGlyphs"
text-anchor="start" opacity="0">Uref</text>
<path d="M21640 17370
L21640 17780
L21670 17820
L21690 17850
L21740 17870
L21830 17870
L21880 17850
L21910 17820
L21930 17780
L21930 17370
" />
<path d="M22170 17870
L22170 17540
" />
<path d="M22170 17630
L22190 17590
L22220 17560
L22260 17540
L22310 17540
" />
<path d="M22670 17850
L22620 17870
L22530 17870
L22480 17850
L22450 17800
L22450 17610
L22480 17560
L22530 17540
L22620 17540
L22670 17560
L22690 17610
L22690 17660
L22450 17700
" />
<path d="M22830 17540
L23030 17540
" />
<path d="M22910 17870
L22910 17440
L22930 17400
L22980 17370
L23030 17370
" />
</g>
<g style="fill:#000000; fill-opacity:0.0; 
stroke:#000000; stroke-width:0; stroke-opacity:1; 
stroke-linecap:round; stroke-linejoin:round;">
</g>
<g style="fill:#000000; fill-opacity:1.0; 
stroke:#000000; stroke-width:100; stroke-opacity:1; 
stroke-linecap:round; stroke-linejoin:round;">
<circle cx="28000" cy="22500" r="200" /> 
</g>
<g style="fill:#000000; fill-opacity:1.0; 
stroke:#000000; stroke-width:0; stroke-opacity:1; 
stroke-linecap:round; stroke-linejoin:round;">
</g>
<g style="fill:#000000; fill-opacity:1.0; 
stroke:#000000; stroke-width:100; stroke-opacity:1; 
stroke-linecap:round; stroke-linejoin:round;">
<circle cx="15500" cy="22000" r="200" /> 
</g>
<g style="fill:#000000; fill-opacity:1.0; 
stroke:#000000; stroke-width:0; stroke-opacity:1; 
stroke-linecap:round; stroke-linejoin:round;">
</g>
<g style="fill:#000000; fill-opacity:1.0; 
stroke:#000000; stroke-width:100; stroke-opacity:1; 
stroke-linecap:round; stroke-linejoin:round;">
<circle cx="15500" cy="26000" r="200" /> 
</g> 
</svg>
