<?xml version="1.0" standalone="no"?>
 <!DOCTYPE svg PUBLIC "-//W3C//DTD SVG 1.1//EN" 
 "http://www.w3.org/Graphics/SVG/1.1/DTD/svg11.dtd"> 
<svg xmlns="http://www.w3.org/2000/svg" version="1.1" 
    width="11.999cm" height="11.999cm" viewBox="0 0 47240 47240 ">
<title>SVG Picture created as input.svg date 2021/12/14 13:24:06 </title>
  <desc>Picture generated by Eeschema-SVG </desc>
<g style="fill:#000000; fill-opacity:1;stroke:#000000; stroke-opacity:1;
stroke-linecap:round; stroke-linejoin:round; "
 transform="translate(0 0) scale(1 1)">
</g>
<g style="fill:#000000; fill-opacity:0.0; 
stroke:#000000; stroke-width:0; stroke-opacity:1; 
stroke-linecap:round; stroke-linejoin:round;">
<g >
</g>
<g style="fill:#000000; fill-opacity:0.0; 
stroke:#000000; stroke-width:100; stroke-opacity:1; 
stroke-linecap:round; stroke-linejoin:round;">
<rect x="15100" y="19000" width="800" height="2000" rx="0" />
</g>
<g style="fill:#000000; fill-opacity:0.0; 
stroke:#000000; stroke-width:60; stroke-opacity:1; 
stroke-linecap:round; stroke-linejoin:round;">
<path d="M15500 19000
L15500 18500
" />
<path d="M15500 21000
L15500 21500
" />
<text x="16720" y="19810"
textLength="990" font-size="660" lengthAdjust="spacingAndGlyphs"
text-anchor="middle" opacity="0">R2</text>
<path d="M16630 19780
L16470 19540
" />
<path d="M16350 19780
L16350 19280
L16540 19280
L16580 19310
L16610 19330
L16630 19380
L16630 19450
L16610 19500
L16580 19520
L16540 19540
L16350 19540
" />
<path d="M16820 19330
L16850 19310
L16890 19280
L17010 19280
L17060 19310
L17080 19330
L17110 19380
L17110 19420
L17080 19500
L16800 19780
L17110 19780
" />
<text x="17180" y="20720"
textLength="1960" font-size="660" lengthAdjust="spacingAndGlyphs"
text-anchor="middle" opacity="0">1483</text>
<path d="M16600 20690
L16320 20690
" />
<path d="M16460 20690
L16460 20190
L16410 20260
L16370 20310
L16320 20330
" />
<path d="M17030 20360
L17030 20690
" />
<path d="M16910 20170
L16790 20520
L17100 20520
" />
<path d="M17370 20410
L17320 20380
L17290 20360
L17270 20310
L17270 20290
L17290 20240
L17320 20220
L17370 20190
L17460 20190
L17510 20220
L17530 20240
L17560 20290
L17560 20310
L17530 20360
L17510 20380
L17460 20410
L17370 20410
L17320 20430
L17290 20450
L17270 20500
L17270 20600
L17290 20640
L17320 20670
L17370 20690
L17460 20690
L17510 20670
L17530 20640
L17560 20600
L17560 20500
L17530 20450
L17510 20430
L17460 20410
" />
<path d="M17720 20190
L18030 20190
L17870 20380
L17940 20380
L17980 20410
L18010 20430
L18030 20480
L18030 20600
L18010 20640
L17980 20670
L17940 20690
L17790 20690
L17750 20670
L17720 20640
" />
</g>
</g>
<g style="fill:#000000; fill-opacity:0.0; 
stroke:#000000; stroke-width:0; stroke-opacity:1; 
stroke-linecap:round; stroke-linejoin:round;">
<g >
</g>
<g style="fill:#000000; fill-opacity:0.0; 
stroke:#000000; stroke-width:60; stroke-opacity:1; 
stroke-linecap:round; stroke-linejoin:round;">
<path style="fill:#000000; fill-opacity:0.0; 
stroke:#000000; stroke-width:60; stroke-opacity:1; 
stroke-linecap:round; stroke-linejoin:round;fill:none"
d="M 28000,17500
28000,18500
" /> 
</g>
<g style="fill:#000000; fill-opacity:1.0; 
stroke:#000000; stroke-width:60; stroke-opacity:1; 
stroke-linecap:round; stroke-linejoin:round;">
<path style="fill:#000000; fill-opacity:1.0; 
stroke:#000000; stroke-width:60; stroke-opacity:1; 
stroke-linecap:round; stroke-linejoin:round;fill-rule:evenodd;"
d="M 28000,17500
28100,17800
27900,17800
Z" /> 
</g>
</g>
<g style="fill:#000000; fill-opacity:1.0; 
stroke:#000000; stroke-width:0; stroke-opacity:1; 
stroke-linecap:round; stroke-linejoin:round;">
<g >
</g>
<g style="fill:#000000; fill-opacity:0.0; 
stroke:#000000; stroke-width:60; stroke-opacity:1; 
stroke-linecap:round; stroke-linejoin:round;">
<path style="fill:#000000; fill-opacity:0.0; 
stroke:#000000; stroke-width:60; stroke-opacity:1; 
stroke-linecap:round; stroke-linejoin:round;fill:none"
d="M 33000,22500
32000,22500
" /> 
</g>
<g style="fill:#000000; fill-opacity:1.0; 
stroke:#000000; stroke-width:60; stroke-opacity:1; 
stroke-linecap:round; stroke-linejoin:round;">
<path style="fill:#000000; fill-opacity:1.0; 
stroke:#000000; stroke-width:60; stroke-opacity:1; 
stroke-linecap:round; stroke-linejoin:round;fill-rule:evenodd;"
d="M 33000,22500
32700,22600
32700,22400
Z" /> 
</g>
</g>
<g style="fill:#000000; fill-opacity:1.0; 
stroke:#000000; stroke-width:0; stroke-opacity:1; 
stroke-linecap:round; stroke-linejoin:round;">
<g >
</g>
<g style="fill:#000000; fill-opacity:0.0; 
stroke:#000000; stroke-width:100; stroke-opacity:1; 
stroke-linecap:round; stroke-linejoin:round;">
<rect x="27600" y="19500" width="800" height="2000" rx="0" />
</g>
<g style="fill:#000000; fill-opacity:0.0; 
stroke:#000000; stroke-width:60; stroke-opacity:1; 
stroke-linecap:round; stroke-linejoin:round;">
<path d="M28000 19500
L28000 19000
" />
<path d="M28000 21500
L28000 22000
" />
<text x="29220" y="20310"
textLength="1040" font-size="660" lengthAdjust="spacingAndGlyphs"
text-anchor="middle" opacity="0">R4</text>
<path d="M29130 20280
L28970 20040
" />
<path d="M28850 20280
L28850 19780
L29040 19780
L29080 19810
L29110 19830
L29130 19880
L29130 19950
L29110 20000
L29080 20020
L29040 20040
L28850 20040
" />
<path d="M29560 19950
L29560 20280
" />
<path d="M29440 19760
L29320 20110
L29630 20110
" />
<text x="29440" y="21220"
textLength="1490" font-size="660" lengthAdjust="spacingAndGlyphs"
text-anchor="middle" opacity="0">100</text>
<path d="M29100 21190
L28820 21190
" />
<path d="M28960 21190
L28960 20690
L28910 20760
L28860 20810
L28820 20830
" />
<path d="M29410 20690
L29460 20690
L29510 20720
L29530 20740
L29550 20790
L29580 20880
L29580 21000
L29550 21100
L29530 21140
L29510 21170
L29460 21190
L29410 21190
L29360 21170
L29340 21140
L29320 21100
L29290 21000
L29290 20880
L29320 20790
L29340 20740
L29360 20720
L29410 20690
" />
<path d="M29890 20690
L29940 20690
L29980 20720
L30010 20740
L30030 20790
L30050 20880
L30050 21000
L30030 21100
L30010 21140
L29980 21170
L29940 21190
L29890 21190
L29840 21170
L29820 21140
L29790 21100
L29770 21000
L29770 20880
L29790 20790
L29820 20740
L29840 20720
L29890 20690
" />
</g>
</g>
<g style="fill:#000000; fill-opacity:0.0; 
stroke:#000000; stroke-width:0; stroke-opacity:1; 
stroke-linecap:round; stroke-linejoin:round;">
<g >
</g>
<g style="fill:#000000; fill-opacity:0.0; 
stroke:#000000; stroke-width:60; stroke-opacity:1; 
stroke-linecap:round; stroke-linejoin:round;">
<path style="fill:#000000; fill-opacity:0.0; 
stroke:#000000; stroke-width:60; stroke-opacity:1; 
stroke-linecap:round; stroke-linejoin:round;fill:none"
d="M 27750,26750
28250,26750
" /> 
<path style="fill:#000000; fill-opacity:0.0; 
stroke:#000000; stroke-width:60; stroke-opacity:1; 
stroke-linecap:round; stroke-linejoin:round;fill:none"
d="M 27950,27000
28050,27000
" /> 
<path style="fill:#000000; fill-opacity:0.0; 
stroke:#000000; stroke-width:60; stroke-opacity:1; 
stroke-linecap:round; stroke-linejoin:round;fill:none"
d="M 28000,26500
28000,26000
" /> 
<path style="fill:#000000; fill-opacity:0.0; 
stroke:#000000; stroke-width:60; stroke-opacity:1; 
stroke-linecap:round; stroke-linejoin:round;fill:none"
d="M 28500,26500
27500,26500
" /> 
<text x="28050" y="28000"
textLength="2960" font-size="660" lengthAdjust="spacingAndGlyphs"
text-anchor="middle" opacity="0">GNDREF</text>
<path d="M26970 27500
L26930 27470
L26850 27470
L26780 27500
L26740 27540
L26710 27590
L26690 27690
L26690 27760
L26710 27850
L26740 27900
L26780 27950
L26850 27970
L26900 27970
L26970 27950
L27000 27920
L27000 27760
L26900 27760
" />
<path d="M27210 27970
L27210 27470
L27500 27970
L27500 27470
" />
<path d="M27740 27970
L27740 27470
L27850 27470
L27930 27500
L27970 27540
L28000 27590
L28020 27690
L28020 27760
L28000 27850
L27970 27900
L27930 27950
L27850 27970
L27740 27970
" />
<path d="M28520 27970
L28350 27730
" />
<path d="M28240 27970
L28240 27470
L28430 27470
L28470 27500
L28500 27520
L28520 27570
L28520 27640
L28500 27690
L28470 27710
L28430 27730
L28240 27730
" />
<path d="M28740 27710
L28900 27710
" />
<path d="M28970 27970
L28740 27970
L28740 27470
L28970 27470
" />
<path d="M29350 27710
L29190 27710
" />
<path d="M29190 27970
L29190 27470
L29430 27470
" />
</g>
</g>
<g style="fill:#000000; fill-opacity:0.0; 
stroke:#000000; stroke-width:0; stroke-opacity:1; 
stroke-linecap:round; stroke-linejoin:round;">
<g >
</g>
<g style="fill:#000000; fill-opacity:0.0; 
stroke:#000000; stroke-width:60; stroke-opacity:1; 
stroke-linecap:round; stroke-linejoin:round;">
<path style="fill:#000000; fill-opacity:0.0; 
stroke:#000000; stroke-width:60; stroke-opacity:1; 
stroke-linecap:round; stroke-linejoin:round;fill:none"
d="M 28000,24500
28000,24000
28000,23500
" /> 
</g>
<g style="fill:#000000; fill-opacity:1.0; 
stroke:#000000; stroke-width:60; stroke-opacity:1; 
stroke-linecap:round; stroke-linejoin:round;">
<path style="fill:#000000; fill-opacity:1.0; 
stroke:#000000; stroke-width:60; stroke-opacity:1; 
stroke-linecap:round; stroke-linejoin:round;fill-rule:evenodd;"
d="M 27700,24300
28000,23700
28300,24300
" /> 
</g>
<g style="fill:#000000; fill-opacity:0.0; 
stroke:#000000; stroke-width:100; stroke-opacity:1; 
stroke-linecap:round; stroke-linejoin:round;">
<path style="fill:#000000; fill-opacity:0.0; 
stroke:#000000; stroke-width:100; stroke-opacity:1; 
stroke-linecap:round; stroke-linejoin:round;fill:none"
d="M 28400,23800
28300,23700
27700,23700
27700,23700
" /> 
</g>
<g style="fill:#000000; fill-opacity:0.0; 
stroke:#000000; stroke-width:60; stroke-opacity:1; 
stroke-linecap:round; stroke-linejoin:round;">
<path d="M28000 24000
L27000 24000
" />
<path d="M28000 24000
L28000 25000
" />
<path d="M28000 24000
L28000 23000
" />
<text x="29230" y="23760"
textLength="1060" font-size="660" lengthAdjust="spacingAndGlyphs"
text-anchor="middle" opacity="0">U1</text>
<path d="M28840 23230
L28840 23640
L28870 23680
L28890 23710
L28940 23730
L29030 23730
L29080 23710
L29110 23680
L29130 23640
L29130 23230
" />
<path d="M29630 23730
L29340 23730
" />
<path d="M29490 23730
L29490 23230
L29440 23300
L29390 23350
L29340 23370
" />
<text x="30540" y="24670"
textLength="3680" font-size="660" lengthAdjust="spacingAndGlyphs"
text-anchor="middle" opacity="0">TL431ACZ</text>
<path d="M28770 24140
L29060 24140
" />
<path d="M28920 24640
L28920 24140
" />
<path d="M29460 24640
L29230 24640
L29230 24140
" />
<path d="M29840 24310
L29840 24640
" />
<path d="M29730 24120
L29610 24470
L29920 24470
" />
<path d="M30060 24140
L30370 24140
L30200 24330
L30270 24330
L30320 24360
L30340 24380
L30370 24430
L30370 24550
L30340 24590
L30320 24620
L30270 24640
L30130 24640
L30080 24620
L30060 24590
" />
<path d="M30840 24640
L30560 24640
" />
<path d="M30700 24640
L30700 24140
L30650 24210
L30610 24260
L30560 24280
" />
<path d="M31040 24500
L31270 24500
" />
<path d="M30990 24640
L31150 24140
L31320 24640
" />
<path d="M31770 24590
L31750 24620
L31680 24640
L31630 24640
L31560 24620
L31510 24570
L31490 24520
L31460 24430
L31460 24360
L31490 24260
L31510 24210
L31560 24170
L31630 24140
L31680 24140
L31750 24170
L31770 24190
" />
<path d="M31940 24140
L32270 24140
L31940 24640
L32270 24640
" />
</g>
</g>
<g style="fill:#000000; fill-opacity:0.0; 
stroke:#000000; stroke-width:0; stroke-opacity:1; 
stroke-linecap:round; stroke-linejoin:round;">
<g >
</g>
<g style="fill:#000000; fill-opacity:0.0; 
stroke:#000000; stroke-width:60; stroke-opacity:1; 
stroke-linecap:round; stroke-linejoin:round;">
<path style="fill:#000000; fill-opacity:0.0; 
stroke:#000000; stroke-width:60; stroke-opacity:1; 
stroke-linecap:round; stroke-linejoin:round;fill:none"
d="M 10000,26000
11000,26000
" /> 
</g>
<g style="fill:#000000; fill-opacity:1.0; 
stroke:#000000; stroke-width:60; stroke-opacity:1; 
stroke-linecap:round; stroke-linejoin:round;">
<path style="fill:#000000; fill-opacity:1.0; 
stroke:#000000; stroke-width:60; stroke-opacity:1; 
stroke-linecap:round; stroke-linejoin:round;fill-rule:evenodd;"
d="M 10000,26000
10300,25900
10300,26100
Z" /> 
</g>
</g>
<g style="fill:#000000; fill-opacity:1.0; 
stroke:#000000; stroke-width:0; stroke-opacity:1; 
stroke-linecap:round; stroke-linejoin:round;">
<g >
</g>
<g style="fill:#000000; fill-opacity:0.0; 
stroke:#000000; stroke-width:60; stroke-opacity:1; 
stroke-linecap:round; stroke-linejoin:round;">
<path style="fill:#000000; fill-opacity:0.0; 
stroke:#000000; stroke-width:60; stroke-opacity:1; 
stroke-linecap:round; stroke-linejoin:round;fill:none"
d="M 10000,22000
11000,22000
" /> 
</g>
<g style="fill:#000000; fill-opacity:1.0; 
stroke:#000000; stroke-width:60; stroke-opacity:1; 
stroke-linecap:round; stroke-linejoin:round;">
<path style="fill:#000000; fill-opacity:1.0; 
stroke:#000000; stroke-width:60; stroke-opacity:1; 
stroke-linecap:round; stroke-linejoin:round;fill-rule:evenodd;"
d="M 10000,22000
10300,21900
10300,22100
Z" /> 
</g>
</g>
<g style="fill:#000000; fill-opacity:1.0; 
stroke:#000000; stroke-width:0; stroke-opacity:1; 
stroke-linecap:round; stroke-linejoin:round;">
<g >
</g>
<g style="fill:#000000; fill-opacity:0.0; 
stroke:#000000; stroke-width:60; stroke-opacity:1; 
stroke-linecap:round; stroke-linejoin:round;">
<path style="fill:#000000; fill-opacity:0.0; 
stroke:#000000; stroke-width:60; stroke-opacity:1; 
stroke-linecap:round; stroke-linejoin:round;fill:none"
d="M 21500,26000
20500,26000
" /> 
</g>
<g style="fill:#000000; fill-opacity:1.0; 
stroke:#000000; stroke-width:60; stroke-opacity:1; 
stroke-linecap:round; stroke-linejoin:round;">
<path style="fill:#000000; fill-opacity:1.0; 
stroke:#000000; stroke-width:60; stroke-opacity:1; 
stroke-linecap:round; stroke-linejoin:round;fill-rule:evenodd;"
d="M 21500,26000
21200,26100
21200,25900
Z" /> 
</g>
</g>
<g style="fill:#000000; fill-opacity:1.0; 
stroke:#000000; stroke-width:0; stroke-opacity:1; 
stroke-linecap:round; stroke-linejoin:round;">
<g >
</g>
<g style="fill:#000000; fill-opacity:0.0; 
stroke:#000000; stroke-width:60; stroke-opacity:1; 
stroke-linecap:round; stroke-linejoin:round;">
<path style="fill:#000000; fill-opacity:0.0; 
stroke:#000000; stroke-width:60; stroke-opacity:1; 
stroke-linecap:round; stroke-linejoin:round;fill:none"
d="M 21500,22000
20500,22000
" /> 
</g>
<g style="fill:#000000; fill-opacity:1.0; 
stroke:#000000; stroke-width:60; stroke-opacity:1; 
stroke-linecap:round; stroke-linejoin:round;">
<path style="fill:#000000; fill-opacity:1.0; 
stroke:#000000; stroke-width:60; stroke-opacity:1; 
stroke-linecap:round; stroke-linejoin:round;fill-rule:evenodd;"
d="M 21500,22000
21200,22100
21200,21900
Z" /> 
</g>
</g>
<g style="fill:#000000; fill-opacity:1.0; 
stroke:#000000; stroke-width:0; stroke-opacity:1; 
stroke-linecap:round; stroke-linejoin:round;">
<g >
</g>
<g style="fill:#000000; fill-opacity:0.0; 
stroke:#000000; stroke-width:60; stroke-opacity:1; 
stroke-linecap:round; stroke-linejoin:round;">
<path style="fill:#000000; fill-opacity:0.0; 
stroke:#000000; stroke-width:60; stroke-opacity:1; 
stroke-linecap:round; stroke-linejoin:round;fill:none"
d="M 21500,18500
20500,18500
" /> 
</g>
<g style="fill:#000000; fill-opacity:1.0; 
stroke:#000000; stroke-width:60; stroke-opacity:1; 
stroke-linecap:round; stroke-linejoin:round;">
<path style="fill:#000000; fill-opacity:1.0; 
stroke:#000000; stroke-width:60; stroke-opacity:1; 
stroke-linecap:round; stroke-linejoin:round;fill-rule:evenodd;"
d="M 21500,18500
21200,18600
21200,18400
Z" /> 
</g>
</g>
<g style="fill:#000000; fill-opacity:1.0; 
stroke:#000000; stroke-width:0; stroke-opacity:1; 
stroke-linecap:round; stroke-linejoin:round;">
<g >
</g>
<g style="fill:#000000; fill-opacity:0.0; 
stroke:#000000; stroke-width:100; stroke-opacity:1; 
stroke-linecap:round; stroke-linejoin:round;">
<path style="fill:#000000; fill-opacity:0.0; 
stroke:#000000; stroke-width:100; stroke-opacity:1; 
stroke-linecap:round; stroke-linejoin:round;fill:none"
d="M 16500,6500
20500,8500
16500,10500
Z" /> 
<path style="fill:#000000; fill-opacity:0.0; 
stroke:#000000; stroke-width:100; stroke-opacity:1; 
stroke-linecap:round; stroke-linejoin:round;fill:none"
d="M 16500,6500
20500,8500
16500,10500
Z" /> 
</g>
<g style="fill:#000000; fill-opacity:0.0; 
stroke:#000000; stroke-width:60; stroke-opacity:1; 
stroke-linecap:round; stroke-linejoin:round;">
<path d="M18500 9500
L18500 11500
" />
<g transform="rotate(-90 18500 9450)">
<text x="18500" y="9550"
textLength="800" font-size="260" lengthAdjust="spacingAndGlyphs"
text-anchor="start" opacity="0">NULL</text>
</g>
</g>
<g style="fill:#000000; fill-opacity:0.0; 
stroke:#000000; stroke-width:30; stroke-opacity:1; 
stroke-linecap:round; stroke-linejoin:round;">
<path d="M18590 9380
L18390 9380
L18590 9270
L18390 9270
" />
<path d="M18390 9170
L18550 9170
L18570 9160
L18580 9150
L18590 9130
L18590 9100
L18580 9080
L18570 9070
L18550 9060
L18390 9060
" />
<path d="M18590 8870
L18590 8960
L18390 8960
" />
<path d="M18590 8710
L18590 8800
L18390 8800
" />
</g>
<g style="fill:#000000; fill-opacity:0.0; 
stroke:#000000; stroke-width:60; stroke-opacity:1; 
stroke-linecap:round; stroke-linejoin:round;">
<g transform="rotate(-90 18400 10500)">
<text x="18400" y="10500"
textLength="510" font-size="660" lengthAdjust="spacingAndGlyphs"
text-anchor="middle" opacity="0">1</text>
</g>
<path d="M18370 10350
L18370 10640
" />
<path d="M18370 10500
L17870 10500
L17940 10540
L17990 10590
L18010 10640
" />
<path d="M16500 9500
L15500 9500
" />
<text x="16550" y="9750"
textLength="680" font-size="660" lengthAdjust="spacingAndGlyphs"
text-anchor="start" opacity="0">-</text>
<path d="M16690 9530
L17080 9530
" />
<text x="16000" y="9400"
textLength="540" font-size="660" lengthAdjust="spacingAndGlyphs"
text-anchor="middle" opacity="0">2</text>
<path d="M15850 8920
L15880 8900
L15920 8870
L16040 8870
L16090 8900
L16110 8920
L16140 8970
L16140 9010
L16110 9090
L15830 9370
L16140 9370
" />
<path d="M16500 7500
L15500 7500
" />
<text x="16550" y="7750"
textLength="680" font-size="660" lengthAdjust="spacingAndGlyphs"
text-anchor="start" opacity="0">+</text>
<path d="M16690 7530
L17080 7530
" />
<path d="M16880 7720
L16880 7340
" />
<text x="16000" y="7400"
textLength="540" font-size="660" lengthAdjust="spacingAndGlyphs"
text-anchor="middle" opacity="0">3</text>
<path d="M15830 6870
L16140 6870
L15970 7060
L16040 7060
L16090 7090
L16110 7110
L16140 7160
L16140 7280
L16110 7320
L16090 7350
L16040 7370
L15900 7370
L15850 7350
L15830 7320
" />
<path d="M17500 10000
L17500 11500
" />
<g transform="rotate(-90 17500 9950)">
<text x="17500" y="10200"
textLength="1110" font-size="660" lengthAdjust="spacingAndGlyphs"
text-anchor="start" opacity="0">V-</text>
</g>
<path d="M17220 9870
L17720 9700
L17220 9530
" />
<path d="M17530 9370
L17530 8990
" />
<g transform="rotate(-90 17400 10750)">
<text x="17400" y="10750"
textLength="540" font-size="660" lengthAdjust="spacingAndGlyphs"
text-anchor="middle" opacity="0">4</text>
</g>
<path d="M17040 10650
L17370 10650
" />
<path d="M16850 10770
L17200 10890
L17200 10580
" />
<path d="M19500 9000
L19500 11500
" />
<g transform="rotate(-90 19500 8950)">
<text x="19500" y="9050"
textLength="800" font-size="260" lengthAdjust="spacingAndGlyphs"
text-anchor="start" opacity="0">NULL</text>
</g>
</g>
<g style="fill:#000000; fill-opacity:0.0; 
stroke:#000000; stroke-width:30; stroke-opacity:1; 
stroke-linecap:round; stroke-linejoin:round;">
<path d="M19590 8880
L19390 8880
L19590 8770
L19390 8770
" />
<path d="M19390 8670
L19550 8670
L19570 8660
L19580 8650
L19590 8630
L19590 8600
L19580 8580
L19570 8570
L19550 8560
L19390 8560
" />
<path d="M19590 8370
L19590 8460
L19390 8460
" />
<path d="M19590 8210
L19590 8300
L19390 8300
" />
</g>
<g style="fill:#000000; fill-opacity:0.0; 
stroke:#000000; stroke-width:60; stroke-opacity:1; 
stroke-linecap:round; stroke-linejoin:round;">
<g transform="rotate(-90 19400 10250)">
<text x="19400" y="10250"
textLength="510" font-size="660" lengthAdjust="spacingAndGlyphs"
text-anchor="middle" opacity="0">5</text>
</g>
<path d="M18870 10130
L18870 10360
L19110 10390
L19090 10360
L19060 10320
L19060 10200
L19090 10150
L19110 10130
L19160 10100
L19280 10100
L19320 10130
L19350 10150
L19370 10200
L19370 10320
L19350 10360
L19320 10390
" />
<path d="M20500 8500
L21500 8500
" />
<text x="21000" y="8400"
textLength="540" font-size="660" lengthAdjust="spacingAndGlyphs"
text-anchor="middle" opacity="0">6</text>
<path d="M21090 7870
L21000 7870
L20950 7900
L20920 7920
L20880 7990
L20850 8090
L20850 8280
L20880 8320
L20900 8350
L20950 8370
L21040 8370
L21090 8350
L21110 8320
L21140 8280
L21140 8160
L21110 8110
L21090 8090
L21040 8060
L20950 8060
L20900 8090
L20880 8110
L20850 8160
" />
<path d="M17500 7000
L17500 5500
" />
<g transform="rotate(-90 17500 7050)">
<text x="17500" y="7300"
textLength="1110" font-size="660" lengthAdjust="spacingAndGlyphs"
text-anchor="end" opacity="0">V+</text>
</g>
<path d="M17220 8080
L17720 7910
L17220 7740
" />
<path d="M17530 7580
L17530 7190
" />
<path d="M17720 7380
L17340 7380
" />
<g transform="rotate(-90 17400 6250)">
<text x="17400" y="6250"
textLength="540" font-size="660" lengthAdjust="spacingAndGlyphs"
text-anchor="middle" opacity="0">7</text>
</g>
<path d="M16870 6410
L16870 6080
L17370 6290
" />
<text x="22440" y="8310"
textLength="1010" font-size="660" lengthAdjust="spacingAndGlyphs"
text-anchor="middle" opacity="0">U?</text>
<path d="M22080 7780
L22080 8190
L22100 8230
L22130 8260
L22170 8280
L22270 8280
L22320 8260
L22340 8230
L22360 8190
L22360 7780
" />
<path d="M22670 8230
L22700 8260
L22670 8280
L22650 8260
L22670 8230
L22670 8280
" />
<path d="M22580 7810
L22630 7780
L22740 7780
L22790 7810
L22820 7850
L22820 7900
L22790 7950
L22770 7970
L22720 8000
L22700 8020
L22670 8070
L22670 8090
" />
<text x="23100" y="9220"
textLength="2320" font-size="660" lengthAdjust="spacingAndGlyphs"
text-anchor="middle" opacity="0">LF355</text>
<path d="M22320 9190
L22080 9190
L22080 8690
" />
<path d="M22650 8930
L22490 8930
" />
<path d="M22490 9190
L22490 8690
L22730 8690
" />
<path d="M22870 8690
L23180 8690
L23010 8880
L23080 8880
L23130 8910
L23150 8930
L23180 8980
L23180 9100
L23150 9140
L23130 9170
L23080 9190
L22940 9190
L22890 9170
L22870 9140
" />
<path d="M23630 8690
L23390 8690
L23370 8930
L23390 8910
L23440 8880
L23560 8880
L23610 8910
L23630 8930
L23650 8980
L23650 9100
L23630 9140
L23610 9170
L23560 9190
L23440 9190
L23390 9170
L23370 9140
" />
<path d="M24110 8690
L23870 8690
L23850 8930
L23870 8910
L23920 8880
L24040 8880
L24080 8910
L24110 8930
L24130 8980
L24130 9100
L24110 9140
L24080 9170
L24040 9190
L23920 9190
L23870 9170
L23850 9140
" />
</g>
</g>
<g style="fill:#000000; fill-opacity:0.0; 
stroke:#000000; stroke-width:0; stroke-opacity:1; 
stroke-linecap:round; stroke-linejoin:round;">
<g >
</g>
<g style="fill:#000000; fill-opacity:0.0; 
stroke:#000000; stroke-width:60; stroke-opacity:1; 
stroke-linecap:round; stroke-linejoin:round;">
<path style="fill:#000000; fill-opacity:0.0; 
stroke:#000000; stroke-width:60; stroke-opacity:1; 
stroke-linecap:round; stroke-linejoin:round;fill:none"
d="M 15250,27250
15750,27250
" /> 
<path style="fill:#000000; fill-opacity:0.0; 
stroke:#000000; stroke-width:60; stroke-opacity:1; 
stroke-linecap:round; stroke-linejoin:round;fill:none"
d="M 15450,27500
15550,27500
" /> 
<path style="fill:#000000; fill-opacity:0.0; 
stroke:#000000; stroke-width:60; stroke-opacity:1; 
stroke-linecap:round; stroke-linejoin:round;fill:none"
d="M 15500,27000
15500,26500
" /> 
<path style="fill:#000000; fill-opacity:0.0; 
stroke:#000000; stroke-width:60; stroke-opacity:1; 
stroke-linecap:round; stroke-linejoin:round;fill:none"
d="M 16000,27000
15000,27000
" /> 
<text x="15550" y="28500"
textLength="2960" font-size="660" lengthAdjust="spacingAndGlyphs"
text-anchor="middle" opacity="0">GNDREF</text>
<path d="M14470 28000
L14430 27970
L14350 27970
L14280 28000
L14240 28040
L14210 28090
L14190 28190
L14190 28260
L14210 28350
L14240 28400
L14280 28450
L14350 28470
L14400 28470
L14470 28450
L14500 28420
L14500 28260
L14400 28260
" />
<path d="M14710 28470
L14710 27970
L15000 28470
L15000 27970
" />
<path d="M15240 28470
L15240 27970
L15350 27970
L15430 28000
L15470 28040
L15500 28090
L15520 28190
L15520 28260
L15500 28350
L15470 28400
L15430 28450
L15350 28470
L15240 28470
" />
<path d="M16020 28470
L15850 28230
" />
<path d="M15740 28470
L15740 27970
L15930 27970
L15970 28000
L16000 28020
L16020 28070
L16020 28140
L16000 28190
L15970 28210
L15930 28230
L15740 28230
" />
<path d="M16240 28210
L16400 28210
" />
<path d="M16470 28470
L16240 28470
L16240 27970
L16470 27970
" />
<path d="M16850 28210
L16690 28210
" />
<path d="M16690 28470
L16690 27970
L16930 27970
" />
</g>
</g>
<g style="fill:#000000; fill-opacity:0.0; 
stroke:#000000; stroke-width:0; stroke-opacity:1; 
stroke-linecap:round; stroke-linejoin:round;">
<g >
</g>
<g style="fill:#000000; fill-opacity:0.0; 
stroke:#000000; stroke-width:100; stroke-opacity:1; 
stroke-linecap:round; stroke-linejoin:round;">
<rect x="12000" y="21600" width="2000" height="800" rx="0" />
</g>
<g style="fill:#000000; fill-opacity:0.0; 
stroke:#000000; stroke-width:60; stroke-opacity:1; 
stroke-linecap:round; stroke-linejoin:round;">
<path d="M14000 22000
L14500 22000
" />
<path d="M12000 22000
L11500 22000
" />
<text x="13000" y="20200"
textLength="1040" font-size="660" lengthAdjust="spacingAndGlyphs"
text-anchor="middle" opacity="0">R1</text>
<path d="M12910 20170
L12750 19930
" />
<path d="M12630 20170
L12630 19670
L12820 19670
L12860 19700
L12890 19720
L12910 19770
L12910 19840
L12890 19890
L12860 19910
L12820 19930
L12630 19930
" />
<path d="M13390 20170
L13100 20170
" />
<path d="M13250 20170
L13250 19670
L13200 19740
L13150 19790
L13100 19810
" />
<text x="13000" y="21110"
textLength="1960" font-size="660" lengthAdjust="spacingAndGlyphs"
text-anchor="middle" opacity="0">9060</text>
<path d="M12190 21080
L12280 21080
L12330 21060
L12350 21030
L12400 20960
L12420 20870
L12420 20680
L12400 20630
L12380 20610
L12330 20580
L12230 20580
L12190 20610
L12160 20630
L12140 20680
L12140 20800
L12160 20840
L12190 20870
L12230 20890
L12330 20890
L12380 20870
L12400 20840
L12420 20800
" />
<path d="M12730 20580
L12780 20580
L12830 20610
L12850 20630
L12880 20680
L12900 20770
L12900 20890
L12880 20990
L12850 21030
L12830 21060
L12780 21080
L12730 21080
L12690 21060
L12660 21030
L12640 20990
L12610 20890
L12610 20770
L12640 20680
L12660 20630
L12690 20610
L12730 20580
" />
<path d="M13330 20580
L13230 20580
L13190 20610
L13160 20630
L13110 20700
L13090 20800
L13090 20990
L13110 21030
L13140 21060
L13190 21080
L13280 21080
L13330 21060
L13350 21030
L13380 20990
L13380 20870
L13350 20820
L13330 20800
L13280 20770
L13190 20770
L13140 20800
L13110 20820
L13090 20870
" />
<path d="M13690 20580
L13730 20580
L13780 20610
L13800 20630
L13830 20680
L13850 20770
L13850 20890
L13830 20990
L13800 21030
L13780 21060
L13730 21080
L13690 21080
L13640 21060
L13610 21030
L13590 20990
L13570 20890
L13570 20770
L13590 20680
L13610 20630
L13640 20610
L13690 20580
" />
</g>
</g>
<g style="fill:#000000; fill-opacity:0.0; 
stroke:#000000; stroke-width:0; stroke-opacity:1; 
stroke-linecap:round; stroke-linejoin:round;">
<g >
</g>
<g style="fill:#000000; fill-opacity:0.0; 
stroke:#000000; stroke-width:100; stroke-opacity:1; 
stroke-linecap:round; stroke-linejoin:round;">
<rect x="15100" y="23000" width="800" height="2000" rx="0" />
</g>
<g style="fill:#000000; fill-opacity:0.0; 
stroke:#000000; stroke-width:60; stroke-opacity:1; 
stroke-linecap:round; stroke-linejoin:round;">
<path d="M15500 23000
L15500 22500
" />
<path d="M15500 25000
L15500 25500
" />
<text x="16720" y="23810"
textLength="1040" font-size="660" lengthAdjust="spacingAndGlyphs"
text-anchor="middle" opacity="0">R3</text>
<path d="M16630 23780
L16470 23540
" />
<path d="M16350 23780
L16350 23280
L16540 23280
L16580 23310
L16610 23330
L16630 23380
L16630 23450
L16610 23500
L16580 23520
L16540 23540
L16350 23540
" />
<path d="M16800 23280
L17110 23280
L16940 23470
L17010 23470
L17060 23500
L17080 23520
L17110 23570
L17110 23690
L17080 23730
L17060 23760
L17010 23780
L16870 23780
L16820 23760
L16800 23730
" />
<text x="17180" y="24720"
textLength="1960" font-size="660" lengthAdjust="spacingAndGlyphs"
text-anchor="middle" opacity="0">1484</text>
<path d="M16600 24690
L16320 24690
" />
<path d="M16460 24690
L16460 24190
L16410 24260
L16370 24310
L16320 24330
" />
<path d="M17030 24360
L17030 24690
" />
<path d="M16910 24170
L16790 24520
L17100 24520
" />
<path d="M17370 24410
L17320 24380
L17290 24360
L17270 24310
L17270 24290
L17290 24240
L17320 24220
L17370 24190
L17460 24190
L17510 24220
L17530 24240
L17560 24290
L17560 24310
L17530 24360
L17510 24380
L17460 24410
L17370 24410
L17320 24430
L17290 24450
L17270 24500
L17270 24600
L17290 24640
L17320 24670
L17370 24690
L17460 24690
L17510 24670
L17530 24640
L17560 24600
L17560 24500
L17530 24450
L17510 24430
L17460 24410
" />
<path d="M17980 24360
L17980 24690
" />
<path d="M17870 24170
L17750 24520
L18060 24520
" />
</g>
</g>
<g style="fill:#000000; fill-opacity:0.0; 
stroke:#000000; stroke-width:60; stroke-opacity:1; 
stroke-linecap:round; stroke-linejoin:round;">
<path d="M15500 21500
L15500 22000
" />
<path d="M11000 26000
L15500 26000
" />
<path d="M28000 22500
L28000 22000
" />
<path d="M26500 24000
L27000 24000
" />
<path d="M26500 22500
L26500 24000
" />
<path d="M28000 22500
L26500 22500
" />
<path d="M28000 23000
L28000 22500
" />
<path d="M28000 26000
L28000 25000
" />
<path d="M32000 22500
L28000 22500
" />
<path d="M28000 18500
L28000 19000
" />
<path d="M15500 26000
L20500 26000
" />
<path d="M15500 22000
L20500 22000
" />
<path d="M15500 22500
L15500 22000
" />
<path d="M15500 26500
L15500 26000
" />
<path d="M15500 25500
L15500 26000
" />
<path d="M11000 22000
L11500 22000
" />
<path d="M14500 22000
L15500 22000
" />
<path d="M20500 18500
L15500 18500
" />
<text x="32000" y="21900"
textLength="1610" font-size="660" lengthAdjust="spacingAndGlyphs"
text-anchor="start" opacity="0">Uref</text>
<path d="M32140 21370
L32140 21780
L32170 21820
L32190 21850
L32240 21870
L32330 21870
L32380 21850
L32410 21820
L32430 21780
L32430 21370
" />
<path d="M32670 21870
L32670 21540
" />
<path d="M32670 21630
L32690 21590
L32720 21560
L32760 21540
L32810 21540
" />
<path d="M33170 21850
L33120 21870
L33030 21870
L32980 21850
L32950 21800
L32950 21610
L32980 21560
L33030 21540
L33120 21540
L33170 21560
L33190 21610
L33190 21660
L32950 21700
" />
<path d="M33330 21540
L33530 21540
" />
<path d="M33410 21870
L33410 21440
L33430 21400
L33480 21370
L33530 21370
" />
<text x="28500" y="17400"
textLength="1580" font-size="660" lengthAdjust="spacingAndGlyphs"
text-anchor="start" opacity="0">+5V</text>
<path d="M28640 17180
L29030 17180
" />
<path d="M28830 17370
L28830 16990
" />
<path d="M29500 16870
L29260 16870
L29240 17110
L29260 17090
L29310 17060
L29430 17060
L29480 17090
L29500 17110
L29530 17160
L29530 17280
L29500 17320
L29480 17350
L29430 17370
L29310 17370
L29260 17350
L29240 17320
" />
<path d="M29670 16870
L29830 17370
L30000 16870
" />
<text x="21500" y="21400"
textLength="960" font-size="660" lengthAdjust="spacingAndGlyphs"
text-anchor="start" opacity="0">A0</text>
<path d="M21620 21230
L21860 21230
" />
<path d="M21570 21370
L21740 20870
L21910 21370
" />
<path d="M22170 20870
L22220 20870
L22260 20900
L22290 20920
L22310 20970
L22330 21060
L22330 21180
L22310 21280
L22290 21320
L22260 21350
L22220 21370
L22170 21370
L22120 21350
L22100 21320
L22070 21280
L22050 21180
L22050 21060
L22070 20970
L22100 20920
L22120 20900
L22170 20870
" />
<text x="9000" y="21400"
textLength="1940" font-size="660" lengthAdjust="spacingAndGlyphs"
text-anchor="start" opacity="0">Input</text>
<path d="M9140 21370
L9140 20870
" />
<path d="M9380 21040
L9380 21370
" />
<path d="M9380 21090
L9410 21060
L9450 21040
L9530 21040
L9570 21060
L9600 21110
L9600 21370
" />
<path d="M9830 21040
L9830 21540
" />
<path d="M9830 21060
L9880 21040
L9980 21040
L10030 21060
L10050 21090
L10070 21130
L10070 21280
L10050 21320
L10030 21350
L9980 21370
L9880 21370
L9830 21350
" />
<path d="M10500 21040
L10500 21370
" />
<path d="M10290 21040
L10290 21300
L10310 21350
L10360 21370
L10430 21370
L10480 21350
L10500 21320
" />
<path d="M10670 21040
L10860 21040
" />
<path d="M10740 20870
L10740 21300
L10760 21350
L10810 21370
L10860 21370
" />
<text x="21500" y="17900"
textLength="1610" font-size="660" lengthAdjust="spacingAndGlyphs"
text-anchor="start" opacity="0">Uref</text>
<path d="M21640 17370
L21640 17780
L21670 17820
L21690 17850
L21740 17870
L21830 17870
L21880 17850
L21910 17820
L21930 17780
L21930 17370
" />
<path d="M22170 17870
L22170 17540
" />
<path d="M22170 17630
L22190 17590
L22220 17560
L22260 17540
L22310 17540
" />
<path d="M22670 17850
L22620 17870
L22530 17870
L22480 17850
L22450 17800
L22450 17610
L22480 17560
L22530 17540
L22620 17540
L22670 17560
L22690 17610
L22690 17660
L22450 17700
" />
<path d="M22830 17540
L23030 17540
" />
<path d="M22910 17870
L22910 17440
L22930 17400
L22980 17370
L23030 17370
" />
</g>
<g style="fill:#000000; fill-opacity:0.0; 
stroke:#000000; stroke-width:0; stroke-opacity:1; 
stroke-linecap:round; stroke-linejoin:round;">
</g>
<g style="fill:#000000; fill-opacity:1.0; 
stroke:#000000; stroke-width:100; stroke-opacity:1; 
stroke-linecap:round; stroke-linejoin:round;">
<circle cx="28000" cy="22500" r="200" /> 
</g>
<g style="fill:#000000; fill-opacity:1.0; 
stroke:#000000; stroke-width:0; stroke-opacity:1; 
stroke-linecap:round; stroke-linejoin:round;">
</g>
<g style="fill:#000000; fill-opacity:1.0; 
stroke:#000000; stroke-width:100; stroke-opacity:1; 
stroke-linecap:round; stroke-linejoin:round;">
<circle cx="15500" cy="22000" r="200" /> 
</g>
<g style="fill:#000000; fill-opacity:1.0; 
stroke:#000000; stroke-width:0; stroke-opacity:1; 
stroke-linecap:round; stroke-linejoin:round;">
</g>
<g style="fill:#000000; fill-opacity:1.0; 
stroke:#000000; stroke-width:100; stroke-opacity:1; 
stroke-linecap:round; stroke-linejoin:round;">
<circle cx="15500" cy="26000" r="200" /> 
</g> 
</svg>
